<?xml version="1.0" encoding="UTF-8"?>
<!-- Generator: Adobe Illustrator 14.0.0, SVG Export Plug-In . SVG Version: 6.00 Build 43363)  -->
<!DOCTYPE svg PUBLIC "-//W3C//DTD SVG 1.1//EN" "http://www.w3.org/Graphics/SVG/1.1/DTD/svg11.dtd">
<svg version="1.1" id="Layer_1" xmlns="http://www.w3.org/2000/svg" xmlns:xlink="http://www.w3.org/1999/xlink" x="0px" y="0px" width="250px" height="181px" viewBox="0 0 250 181" enable-background="new 0 0 250 181" xml:space="preserve">
<g>
	<g>
		<defs>
			<polygon id="SVGID_1_" points="166.167,85.92 166.167,118.419 215.228,118.419 224.139,85.92"/>
		</defs>
		<clipPath id="SVGID_2_">
			<use xlink:href="#SVGID_1_" overflow="visible"/>
		</clipPath>
		
			<linearGradient id="SVGID_3_" gradientUnits="userSpaceOnUse" x1="-161.6475" y1="296.0166" x2="-156.2612" y2="296.0166" gradientTransform="matrix(10.7634, 0, 0, -10.7634, 1906.04, 3288.3)">
			<stop offset="0" style="stop-color: rgb(129, 130, 133);"/>
			<stop offset="0.1124" style="stop-color: rgb(129, 130, 133);"/>
			<stop offset="0.1762" style="stop-color: rgb(148, 148, 151);"/>
			<stop offset="0.3113" style="stop-color: rgb(205, 204, 205);"/>
			<stop offset="0.3933" style="stop-color: rgb(255, 255, 255);"/>
			<stop offset="0.5023" style="stop-color: rgb(211, 211, 212);"/>
			<stop offset="0.5955" style="stop-color: rgb(183, 185, 186);"/>
			<stop offset="0.882" style="stop-color: rgb(179, 181, 184);"/>
			<stop offset="1" style="stop-color: rgb(179, 181, 184);"/>
		</linearGradient>
		<rect x="166.167" y="85.92" clip-path="url(#SVGID_2_)" fill="url(#SVGID_3_)" width="57.972" height="32.499"/>
	</g>
	<g>
		<defs>
			<polygon id="SVGID_4_" points="166.167,90.38 166.167,113.97 216.433,113.97 222.896,90.38"/>
		</defs>
		<clipPath id="SVGID_5_">
			<use xlink:href="#SVGID_4_" overflow="visible"/>
		</clipPath>
		
			<linearGradient id="SVGID_6_" gradientUnits="userSpaceOnUse" x1="-158.52" y1="297.002" x2="-153.1333" y2="297.002" gradientTransform="matrix(9.9167, 0, 0, -9.9167, 1756.66, 3047.43)">
			<stop offset="0" style="stop-color: rgb(148, 27, 30);"/>
			<stop offset="0.1685" style="stop-color: rgb(148, 27, 30);"/>
			<stop offset="0.2821" style="stop-color: rgb(164, 29, 39);"/>
			<stop offset="0.5281" style="stop-color: rgb(196, 31, 60);"/>
			<stop offset="0.6001" style="stop-color: rgb(167, 28, 43);"/>
			<stop offset="0.6798" style="stop-color: rgb(132, 22, 24);"/>
			<stop offset="0.7159" style="stop-color: rgb(182, 33, 55);"/>
			<stop offset="0.736" style="stop-color: rgb(208, 37, 71);"/>
			<stop offset="0.787" style="stop-color: rgb(174, 31, 49);"/>
			<stop offset="0.8483" style="stop-color: rgb(132, 22, 24);"/>
			<stop offset="0.8792" style="stop-color: rgb(136, 23, 26);"/>
			<stop offset="0.9134" style="stop-color: rgb(147, 26, 33);"/>
			<stop offset="0.9493" style="stop-color: rgb(167, 30, 45);"/>
			<stop offset="0.986" style="stop-color: rgb(194, 35, 63);"/>
			<stop offset="1" style="stop-color: rgb(208, 37, 71);"/>
		</linearGradient>
		<rect x="166.167" y="90.38" clip-path="url(#SVGID_5_)" fill="url(#SVGID_6_)" width="56.729" height="23.579"/>
	</g>
	<g>
		<defs>
			<polygon id="SVGID_7_" points="166.167,114.863 166.167,115.758 215.953,115.811 216.19,114.863"/>
		</defs>
		<clipPath id="SVGID_8_">
			<use xlink:href="#SVGID_7_" overflow="visible"/>
		</clipPath>
		
			<linearGradient id="SVGID_9_" gradientUnits="userSpaceOnUse" x1="-169.6084" y1="290.4785" x2="-164.2209" y2="290.4785" gradientTransform="matrix(18.9398, 0, 0, -18.9398, 3382.65, 5616.94)">
			<stop offset="0" style="stop-color: rgb(97, 13, 13);"/>
			<stop offset="0.0112" style="stop-color: rgb(97, 13, 13);"/>
			<stop offset="0.054" style="stop-color: rgb(101, 14, 14);"/>
			<stop offset="0.1051" style="stop-color: rgb(111, 17, 18);"/>
			<stop offset="0.1602" style="stop-color: rgb(129, 21, 23);"/>
			<stop offset="0.1685" style="stop-color: rgb(132, 22, 24);"/>
			<stop offset="0.395" style="stop-color: rgb(174, 29, 47);"/>
			<stop offset="0.5281" style="stop-color: rgb(196, 31, 60);"/>
			<stop offset="0.6001" style="stop-color: rgb(167, 28, 43);"/>
			<stop offset="0.6798" style="stop-color: rgb(132, 22, 24);"/>
			<stop offset="0.7159" style="stop-color: rgb(182, 33, 55);"/>
			<stop offset="0.736" style="stop-color: rgb(208, 37, 71);"/>
			<stop offset="0.787" style="stop-color: rgb(174, 31, 49);"/>
			<stop offset="0.8483" style="stop-color: rgb(132, 22, 24);"/>
			<stop offset="0.8792" style="stop-color: rgb(136, 23, 26);"/>
			<stop offset="0.9134" style="stop-color: rgb(147, 26, 33);"/>
			<stop offset="0.9493" style="stop-color: rgb(167, 30, 45);"/>
			<stop offset="0.986" style="stop-color: rgb(194, 35, 63);"/>
			<stop offset="1" style="stop-color: rgb(208, 37, 71);"/>
		</linearGradient>
		<rect x="166.167" y="114.863" clip-path="url(#SVGID_8_)" fill="url(#SVGID_9_)" width="50.023" height="0.947"/>
	</g>
	<g>
		<defs>
			<polygon id="SVGID_10_" points="166.167,85.91 166.167,118.419 193.725,108.688 193.725,75.379"/>
		</defs>
		<clipPath id="SVGID_11_">
			<use xlink:href="#SVGID_10_" overflow="visible"/>
		</clipPath>
		
			<linearGradient id="SVGID_12_" gradientUnits="userSpaceOnUse" x1="-224.4448" y1="259.4912" x2="-219.0576" y2="259.4912" gradientTransform="matrix(-5.1283, 0, 0, 5.1283, -957.284, -1233.84)">
			<stop offset="0" style="stop-color: rgb(110, 112, 114);"/>
			<stop offset="0.1124" style="stop-color: rgb(110, 112, 114);"/>
			<stop offset="0.4082" style="stop-color: rgb(149, 150, 152);"/>
			<stop offset="0.5955" style="stop-color: rgb(183, 185, 186);"/>
			<stop offset="0.9045" style="stop-color: rgb(220, 221, 222);"/>
			<stop offset="1" style="stop-color: rgb(220, 221, 222);"/>
		</linearGradient>
		<rect x="166.167" y="75.379" clip-path="url(#SVGID_11_)" fill="url(#SVGID_12_)" width="27.558" height="43.04"/>
	</g>
	<g>
		<defs>
			<polygon id="SVGID_13_" points="166.167,114.853 166.167,115.758 193.725,105.217 193.725,104.322"/>
		</defs>
		<clipPath id="SVGID_14_">
			<use xlink:href="#SVGID_13_" overflow="visible"/>
		</clipPath>
		
			<linearGradient id="SVGID_15_" gradientUnits="userSpaceOnUse" x1="-227.7383" y1="258.1807" x2="-222.3517" y2="258.1807" gradientTransform="matrix(-4.4663, 0, 0, 4.4663, -841.071, -1043.06)">
			<stop offset="0" style="stop-color: rgb(132, 22, 24);"/>
			<stop offset="0.1685" style="stop-color: rgb(132, 22, 24);"/>
			<stop offset="0.395" style="stop-color: rgb(174, 29, 47);"/>
			<stop offset="0.5281" style="stop-color: rgb(196, 31, 60);"/>
			<stop offset="0.6001" style="stop-color: rgb(167, 28, 43);"/>
			<stop offset="0.6798" style="stop-color: rgb(132, 22, 24);"/>
			<stop offset="0.7159" style="stop-color: rgb(182, 33, 55);"/>
			<stop offset="0.736" style="stop-color: rgb(208, 37, 71);"/>
			<stop offset="0.787" style="stop-color: rgb(174, 31, 49);"/>
			<stop offset="0.8483" style="stop-color: rgb(132, 22, 24);"/>
			<stop offset="0.8792" style="stop-color: rgb(136, 23, 26);"/>
			<stop offset="0.9134" style="stop-color: rgb(147, 26, 33);"/>
			<stop offset="0.9493" style="stop-color: rgb(167, 30, 45);"/>
			<stop offset="0.986" style="stop-color: rgb(194, 35, 63);"/>
			<stop offset="1" style="stop-color: rgb(208, 37, 71);"/>
		</linearGradient>
		<rect x="166.167" y="104.322" clip-path="url(#SVGID_14_)" fill="url(#SVGID_15_)" width="27.558" height="11.436"/>
	</g>
	<g>
		<defs>
			<polygon id="SVGID_16_" points="166.167,85.91 166.167,113.97 193.725,103.418 193.725,75.379"/>
		</defs>
		<clipPath id="SVGID_17_">
			<use xlink:href="#SVGID_16_" overflow="visible"/>
		</clipPath>
		
			<linearGradient id="SVGID_18_" gradientUnits="userSpaceOnUse" x1="-227.7383" y1="255.3779" x2="-222.3517" y2="255.3779" gradientTransform="matrix(-4.4663, 0, 0, 4.4663, -841.071, -1045.92)">
			<stop offset="0" style="stop-color: rgb(115, 16, 18);"/>
			<stop offset="0.0112" style="stop-color: rgb(115, 16, 18);"/>
			<stop offset="0.0908" style="stop-color: rgb(121, 18, 20);"/>
			<stop offset="0.1685" style="stop-color: rgb(132, 22, 24);"/>
			<stop offset="0.395" style="stop-color: rgb(174, 29, 47);"/>
			<stop offset="0.5281" style="stop-color: rgb(196, 31, 60);"/>
			<stop offset="0.6001" style="stop-color: rgb(167, 28, 43);"/>
			<stop offset="0.6798" style="stop-color: rgb(132, 22, 24);"/>
			<stop offset="0.7159" style="stop-color: rgb(182, 33, 55);"/>
			<stop offset="0.736" style="stop-color: rgb(208, 37, 71);"/>
			<stop offset="0.787" style="stop-color: rgb(174, 31, 49);"/>
			<stop offset="0.8483" style="stop-color: rgb(132, 22, 24);"/>
			<stop offset="0.8792" style="stop-color: rgb(136, 23, 26);"/>
			<stop offset="0.9134" style="stop-color: rgb(147, 26, 33);"/>
			<stop offset="0.9493" style="stop-color: rgb(167, 30, 45);"/>
			<stop offset="0.986" style="stop-color: rgb(194, 35, 63);"/>
			<stop offset="1" style="stop-color: rgb(208, 37, 71);"/>
		</linearGradient>
		<rect x="166.167" y="75.379" clip-path="url(#SVGID_17_)" fill="url(#SVGID_18_)" width="27.558" height="38.58"/>
	</g>
	<g>
		<defs>
			<polygon id="SVGID_19_" points="27.455,85.92 36.333,118.419 84.605,118.419 84.605,85.92"/>
		</defs>
		<clipPath id="SVGID_20_">
			<use xlink:href="#SVGID_19_" overflow="visible"/>
		</clipPath>
		
			<linearGradient id="SVGID_21_" gradientUnits="userSpaceOnUse" x1="-193.3643" y1="272.8174" x2="-187.978" y2="272.8174" gradientTransform="matrix(-10.6105, 0, 0, 10.6105, -1967.09, -2792.55)">
			<stop offset="0" style="stop-color: rgb(129, 130, 133);"/>
			<stop offset="0.1124" style="stop-color: rgb(129, 130, 133);"/>
			<stop offset="0.1762" style="stop-color: rgb(148, 148, 151);"/>
			<stop offset="0.3113" style="stop-color: rgb(205, 204, 205);"/>
			<stop offset="0.3933" style="stop-color: rgb(255, 255, 255);"/>
			<stop offset="0.5023" style="stop-color: rgb(211, 211, 212);"/>
			<stop offset="0.5955" style="stop-color: rgb(183, 185, 186);"/>
			<stop offset="0.882" style="stop-color: rgb(179, 181, 184);"/>
			<stop offset="1" style="stop-color: rgb(179, 181, 184);"/>
		</linearGradient>
		<rect x="27.455" y="85.92" clip-path="url(#SVGID_20_)" fill="url(#SVGID_21_)" width="57.15" height="32.499"/>
	</g>
	<g>
		<defs>
			<polygon id="SVGID_22_" points="28.712,90.38 35.15,113.97 84.605,113.97 84.605,90.38"/>
		</defs>
		<clipPath id="SVGID_23_">
			<use xlink:href="#SVGID_22_" overflow="visible"/>
		</clipPath>
		
			<linearGradient id="SVGID_24_" gradientUnits="userSpaceOnUse" x1="-194.7598" y1="269.5791" x2="-189.3731" y2="269.5791" gradientTransform="matrix(-8.3078, 0, 0, 8.3078, -1555.55, -2137.45)">
			<stop offset="0" style="stop-color: rgb(145, 26, 29);"/>
			<stop offset="0.1685" style="stop-color: rgb(145, 26, 29);"/>
			<stop offset="0.2449" style="stop-color: rgb(156, 28, 35);"/>
			<stop offset="0.5281" style="stop-color: rgb(196, 31, 60);"/>
			<stop offset="0.6001" style="stop-color: rgb(167, 28, 43);"/>
			<stop offset="0.6798" style="stop-color: rgb(132, 22, 24);"/>
			<stop offset="0.8483" style="stop-color: rgb(132, 22, 24);"/>
			<stop offset="0.8792" style="stop-color: rgb(136, 23, 26);"/>
			<stop offset="0.9134" style="stop-color: rgb(147, 26, 33);"/>
			<stop offset="0.9493" style="stop-color: rgb(167, 30, 45);"/>
			<stop offset="0.986" style="stop-color: rgb(194, 35, 63);"/>
			<stop offset="1" style="stop-color: rgb(208, 37, 71);"/>
		</linearGradient>
		<rect x="28.712" y="90.38" clip-path="url(#SVGID_23_)" fill="url(#SVGID_24_)" width="55.893" height="23.579"/>
	</g>
	<g>
		<defs>
			<polygon id="SVGID_25_" points="35.392,114.863 35.66,115.758 84.605,115.758 84.605,114.863"/>
		</defs>
		<clipPath id="SVGID_26_">
			<use xlink:href="#SVGID_25_" overflow="visible"/>
		</clipPath>
		
			<linearGradient id="SVGID_27_" gradientUnits="userSpaceOnUse" x1="-196.9209" y1="269.3281" x2="-191.5348" y2="269.3281" gradientTransform="matrix(-7.4644, 0, 0, 7.4644, -1402.39, -1895.06)">
			<stop offset="0" style="stop-color: rgb(132, 22, 24);"/>
			<stop offset="0.2753" style="stop-color: rgb(231, 61, 47);"/>
			<stop offset="0.5112" style="stop-color: rgb(155, 28, 31);"/>
			<stop offset="0.7026" style="stop-color: rgb(218, 56, 44);"/>
			<stop offset="0.7303" style="stop-color: rgb(231, 61, 47);"/>
			<stop offset="0.8655" style="stop-color: rgb(180, 41, 37);"/>
			<stop offset="1" style="stop-color: rgb(133, 22, 24);"/>
		</linearGradient>
		<rect x="35.392" y="114.863" clip-path="url(#SVGID_26_)" fill="url(#SVGID_27_)" width="49.213" height="0.895"/>
	</g>
	<g>
		<defs>
			<polygon id="SVGID_28_" points="57.048,108.688 84.605,118.419 84.605,117.819 84.605,85.91 57.048,75.379"/>
		</defs>
		<clipPath id="SVGID_29_">
			<use xlink:href="#SVGID_28_" overflow="visible"/>
		</clipPath>
		
			<linearGradient id="SVGID_30_" gradientUnits="userSpaceOnUse" x1="-158.207" y1="309.5684" x2="-152.8208" y2="309.5684" gradientTransform="matrix(5.1161, 0, 0, -5.1161, 866.457, 1680.69)">
			<stop offset="0" style="stop-color: rgb(110, 112, 114);"/>
			<stop offset="0.1124" style="stop-color: rgb(110, 112, 114);"/>
			<stop offset="0.4082" style="stop-color: rgb(149, 150, 152);"/>
			<stop offset="0.5955" style="stop-color: rgb(183, 185, 186);"/>
			<stop offset="0.9045" style="stop-color: rgb(220, 221, 222);"/>
			<stop offset="1" style="stop-color: rgb(220, 221, 222);"/>
		</linearGradient>
		<rect x="57.048" y="75.379" clip-path="url(#SVGID_29_)" fill="url(#SVGID_30_)" width="27.557" height="43.04"/>
	</g>
	<g>
		<defs>
			<polygon id="SVGID_31_" points="57.048,105.217 84.605,115.758 84.605,114.853 57.048,104.322"/>
		</defs>
		<clipPath id="SVGID_32_">
			<use xlink:href="#SVGID_31_" overflow="visible"/>
		</clipPath>
		
			<linearGradient id="SVGID_33_" gradientUnits="userSpaceOnUse" x1="-155.8735" y1="307.998" x2="-150.4862" y2="307.998" gradientTransform="matrix(5.0025, 0, 0, -5.0025, 848.038, 1650.82)">
			<stop offset="0" style="stop-color: rgb(131, 22, 24);"/>
			<stop offset="0.0112" style="stop-color: rgb(131, 22, 24);"/>
			<stop offset="0.258" style="stop-color: rgb(164, 28, 42);"/>
			<stop offset="0.5112" style="stop-color: rgb(196, 31, 60);"/>
			<stop offset="0.5912" style="stop-color: rgb(167, 28, 43);"/>
			<stop offset="0.6798" style="stop-color: rgb(132, 22, 24);"/>
			<stop offset="0.7159" style="stop-color: rgb(182, 33, 55);"/>
			<stop offset="0.736" style="stop-color: rgb(208, 37, 71);"/>
			<stop offset="0.787" style="stop-color: rgb(174, 31, 49);"/>
			<stop offset="0.8483" style="stop-color: rgb(132, 22, 24);"/>
			<stop offset="0.8792" style="stop-color: rgb(136, 23, 26);"/>
			<stop offset="0.9134" style="stop-color: rgb(147, 26, 33);"/>
			<stop offset="0.9493" style="stop-color: rgb(167, 30, 45);"/>
			<stop offset="0.986" style="stop-color: rgb(194, 35, 63);"/>
			<stop offset="1" style="stop-color: rgb(208, 37, 71);"/>
		</linearGradient>
		<rect x="57.048" y="104.322" clip-path="url(#SVGID_32_)" fill="url(#SVGID_33_)" width="27.557" height="11.436"/>
	</g>
	<g>
		<defs>
			<polygon id="SVGID_34_" points="57.048,103.418 84.605,113.97 84.605,85.91 57.048,75.379"/>
		</defs>
		<clipPath id="SVGID_35_">
			<use xlink:href="#SVGID_34_" overflow="visible"/>
		</clipPath>
		
			<linearGradient id="SVGID_36_" gradientUnits="userSpaceOnUse" x1="-155.8735" y1="310.5" x2="-150.4862" y2="310.5" gradientTransform="matrix(5.0025, 0, 0, -5.0025, 848.038, 1647.96)">
			<stop offset="0" style="stop-color: rgb(115, 16, 18);"/>
			<stop offset="0.1573" style="stop-color: rgb(115, 16, 18);"/>
			<stop offset="0.5112" style="stop-color: rgb(196, 31, 60);"/>
			<stop offset="0.5912" style="stop-color: rgb(167, 28, 43);"/>
			<stop offset="0.6798" style="stop-color: rgb(132, 22, 24);"/>
			<stop offset="0.7159" style="stop-color: rgb(182, 33, 55);"/>
			<stop offset="0.736" style="stop-color: rgb(208, 37, 71);"/>
			<stop offset="0.787" style="stop-color: rgb(174, 31, 49);"/>
			<stop offset="0.8483" style="stop-color: rgb(132, 22, 24);"/>
			<stop offset="0.8792" style="stop-color: rgb(136, 23, 26);"/>
			<stop offset="0.9134" style="stop-color: rgb(147, 26, 33);"/>
			<stop offset="0.9493" style="stop-color: rgb(167, 30, 45);"/>
			<stop offset="0.986" style="stop-color: rgb(194, 35, 63);"/>
			<stop offset="1" style="stop-color: rgb(208, 37, 71);"/>
		</linearGradient>
		<rect x="57.048" y="75.379" clip-path="url(#SVGID_35_)" fill="url(#SVGID_36_)" width="27.557" height="38.58"/>
	</g>
	<g>
		<defs>
			<polygon id="SVGID_37_" points="5,7.84 22.074,37.48 83.006,69.993 79.45,71.776 36.418,47.732 50.078,70.813 63.191,77.914 77.13,101.966 96.94,112.476 84.779,151 110.185,138.449 124.119,176.143 124.119,51.004 119.748,41.163 123.303,37.075 105.813,32.152 99.123,34.203 90.38,33.52 79.587,38.164 90.654,39.668 103.494,48.816 98.16,56.874"/>
		</defs>
		<clipPath id="SVGID_38_">
			<use xlink:href="#SVGID_37_" overflow="visible"/>
		</clipPath>
		
			<linearGradient id="SVGID_39_" gradientUnits="userSpaceOnUse" x1="-177.2593" y1="290.4805" x2="-171.8726" y2="290.4805" gradientTransform="matrix(22.115, 0, 0, -22.115, 3925.09, 6515.96)">
			<stop offset="0" style="stop-color: rgb(153, 154, 158);"/>
			<stop offset="0.0688" style="stop-color: rgb(153, 154, 158);"/>
			<stop offset="0.3794" style="stop-color: rgb(168, 170, 172);"/>
			<stop offset="0.6138" style="stop-color: rgb(175, 176, 179);"/>
			<stop offset="0.6232" style="stop-color: rgb(178, 179, 182);"/>
			<stop offset="0.7138" style="stop-color: rgb(206, 206, 207);"/>
			<stop offset="0.7902" style="stop-color: rgb(224, 224, 225);"/>
			<stop offset="0.8427" style="stop-color: rgb(231, 231, 231);"/>
			<stop offset="0.8875" style="stop-color: rgb(186, 187, 188);"/>
			<stop offset="0.9262" style="stop-color: rgb(158, 159, 161);"/>
			<stop offset="0.9471" style="stop-color: rgb(147, 149, 152);"/>
			<stop offset="1" style="stop-color: rgb(147, 149, 152);"/>
		</linearGradient>
		<rect x="5" y="7.84" clip-path="url(#SVGID_38_)" fill="url(#SVGID_39_)" width="119.119" height="168.303"/>
	</g>
	<g>
		<defs>
			<polygon id="SVGID_40_" points="151.729,56.874 146.395,48.816 159.24,39.668 170.307,38.164 159.514,33.52 150.771,34.203 144.08,32.152 126.596,37.075 130.142,41.163 125.775,51.004 125.775,176.143 139.704,138.449 165.12,151 152.959,112.476 172.769,101.966 186.697,77.914 199.811,70.813 213.477,47.732 170.443,71.776 166.888,69.993 227.82,37.48 244.895,7.84"/>
		</defs>
		<clipPath id="SVGID_41_">
			<use xlink:href="#SVGID_40_" overflow="visible"/>
		</clipPath>
		
			<linearGradient id="SVGID_42_" gradientUnits="userSpaceOnUse" x1="-172.8125" y1="290.4805" x2="-167.4263" y2="290.4805" gradientTransform="matrix(22.1156, 0, 0, -22.1156, 3947.62, 6516.12)">
			<stop offset="0" style="stop-color: rgb(157, 159, 162);"/>
			<stop offset="0.4391" style="stop-color: rgb(231, 231, 231);"/>
			<stop offset="0.4722" style="stop-color: rgb(219, 219, 220);"/>
			<stop offset="0.5739" style="stop-color: rgb(189, 191, 192);"/>
			<stop offset="0.6296" style="stop-color: rgb(179, 181, 182);"/>
			<stop offset="0.8093" style="stop-color: rgb(189, 190, 192);"/>
			<stop offset="1" style="stop-color: rgb(195, 196, 198);"/>
		</linearGradient>
		<rect x="125.775" y="7.84" clip-path="url(#SVGID_41_)" fill="url(#SVGID_42_)" width="119.119" height="168.303"/>
	</g>
	<g>
		<defs>
			<polygon id="SVGID_43_" points="131.635,23.262 124.808,16.035 118.38,23.136 105.677,16.303 112.915,31.468 124.529,34.75 136.685,31.884 144.201,16.035"/>
		</defs>
		<clipPath id="SVGID_44_">
			<use xlink:href="#SVGID_43_" overflow="visible"/>
		</clipPath>
		
			<linearGradient id="SVGID_45_" gradientUnits="userSpaceOnUse" x1="-159.9458" y1="308.7715" x2="-154.5581" y2="308.7715" gradientTransform="matrix(7.6829, 0, 0, -7.6829, 1339.76, 2397.67)">
			<stop offset="0" style="stop-color: rgb(210, 211, 212);"/>
			<stop offset="0.2011" style="stop-color: rgb(231, 231, 231);"/>
			<stop offset="0.2344" style="stop-color: rgb(219, 219, 219);"/>
			<stop offset="0.3601" style="stop-color: rgb(183, 183, 184);"/>
			<stop offset="0.4765" style="stop-color: rgb(160, 161, 162);"/>
			<stop offset="0.5792" style="stop-color: rgb(147, 148, 150);"/>
			<stop offset="0.6573" style="stop-color: rgb(142, 144, 146);"/>
			<stop offset="0.7116" style="stop-color: rgb(174, 175, 176);"/>
			<stop offset="0.7661" style="stop-color: rgb(203, 203, 204);"/>
			<stop offset="0.8117" style="stop-color: rgb(223, 223, 224);"/>
			<stop offset="0.8427" style="stop-color: rgb(231, 231, 231);"/>
			<stop offset="0.8464" style="stop-color: rgb(229, 229, 230);"/>
			<stop offset="0.9475" style="stop-color: rgb(193, 194, 196);"/>
			<stop offset="1" style="stop-color: rgb(179, 181, 184);"/>
		</linearGradient>
		<rect x="105.677" y="16.035" clip-path="url(#SVGID_44_)" fill="url(#SVGID_45_)" width="38.524" height="18.715"/>
	</g>
	<g>
		<defs>
			<path id="SVGID_46_" d="M119.19,23.867l-0.573,0.637c0,0-7.038-3.787-10.515-5.649c1.783,3.719,5.271,11.025,5.586,11.698     c0.852,0.242,10.373,2.93,10.867,3.067c0.5-0.121,10.452-2.462,11.373-2.683c0.336-0.705,3.944-8.316,5.791-12.214     c-3.498,2.009-10.283,5.928-10.283,5.928s-5.355-5.675-6.618-7.017C123.603,18.986,119.19,23.867,119.19,23.867"/>
		</defs>
		<clipPath id="SVGID_47_">
			<use xlink:href="#SVGID_46_" overflow="visible"/>
		</clipPath>
		
			<linearGradient id="SVGID_48_" gradientUnits="userSpaceOnUse" x1="-161.6689" y1="305.6348" x2="-156.2858" y2="305.6348" gradientTransform="matrix(8.8144, 0, 0, -8.8144, 1545.84, 2719.61)">
			<stop offset="0" style="stop-color: rgb(189, 190, 192);"/>
			<stop offset="0.0741" style="stop-color: rgb(189, 190, 192);"/>
			<stop offset="0.1005" style="stop-color: rgb(231, 231, 231);"/>
			<stop offset="0.1764" style="stop-color: rgb(227, 228, 228);"/>
			<stop offset="0.2416" style="stop-color: rgb(217, 218, 218);"/>
			<stop offset="0.3027" style="stop-color: rgb(201, 202, 203);"/>
			<stop offset="0.3539" style="stop-color: rgb(183, 185, 186);"/>
			<stop offset="0.5979" style="stop-color: rgb(183, 185, 186);"/>
			<stop offset="0.6034" style="stop-color: rgb(193, 194, 196);"/>
			<stop offset="0.6166" style="stop-color: rgb(213, 214, 214);"/>
			<stop offset="0.6319" style="stop-color: rgb(230, 230, 230);"/>
			<stop offset="0.6505" style="stop-color: rgb(243, 242, 242);"/>
			<stop offset="0.6755" style="stop-color: rgb(251, 251, 251);"/>
			<stop offset="0.736" style="stop-color: rgb(255, 255, 255);"/>
			<stop offset="0.8138" style="stop-color: rgb(228, 227, 228);"/>
			<stop offset="1" style="stop-color: rgb(179, 181, 184);"/>
		</linearGradient>
		<rect x="108.102" y="17.64" clip-path="url(#SVGID_47_)" fill="url(#SVGID_48_)" width="33.617" height="15.98"/>
	</g>
	<polygon fill="#F2F2F2" points="227.82,37.48 226.805,36.118 163.521,69.945 166.762,70.061"/>
	<polygon fill="#F2F2F2" points="199.763,70.855 198.638,69.725 184.31,76.536 185.908,77.099 186.771,77.867"/>
	<polygon fill="#F2F2F2" points="172.758,101.902 172.032,100.462 151.107,111.697 152.938,112.486"/>
	<polygon fill="#F2F2F2" points="162.816,148.37 165.179,151 139.741,138.429 139.052,136.787"/>
	<polygon fill="#E7E7E7" points="22.053,37.48 23.068,36.118 86.356,69.945 83.116,70.061"/>
	<polygon fill="#E7E7E7" points="50.104,70.855 51.23,69.725 65.559,76.536 63.959,77.099 63.097,77.867"/>
	<polygon fill="#E7E7E7" points="77.115,101.902 77.835,100.462 98.76,111.697 96.929,112.486"/>
	<polygon fill="#E7E7E7" points="87.051,148.37 84.694,151 110.132,138.429 110.826,136.787"/>
	<g>
		<defs>
			<path id="SVGID_49_" d="M7.83,10.56c2.945,5.118,14.765,25.637,15.038,26.105c0.547,0.294,62.511,33.364,62.511,33.364     l-5.955,2.972c0,0-34.054-19.026-40.002-22.35c2.935,4.955,11.188,18.92,11.451,19.347c0.505,0.279,13.113,7.101,13.113,7.101     s13.624,23.52,13.928,24.046c0.537,0.284,20.335,10.804,20.335,10.804s-10.304,32.654-11.662,36.946     c3.803-1.883,24.207-11.972,24.207-11.972s9.194,24.88,12.235,33.117V51.235c-0.184-0.4-4.555-10.257-4.555-10.257     s1.825-2.109,2.877-3.319c-2.662-0.757-14.986-4.213-15.527-4.371c-0.552,0.173-6.581,2.015-6.581,2.015     s-8.174-0.637-8.684-0.673c-0.311,0.137-3.845,1.657-6.928,2.982c3.272,0.442,7.438,1.01,7.438,1.01l13.923,9.92l-6.459,9.768     C98.534,58.31,14.026,13.815,7.83,10.56z"/>
		</defs>
		<clipPath id="SVGID_50_">
			<use xlink:href="#SVGID_49_" overflow="visible"/>
		</clipPath>
		
			<linearGradient id="SVGID_51_" gradientUnits="userSpaceOnUse" x1="-177.2578" y1="290.543" x2="-171.8727" y2="290.543" gradientTransform="matrix(22.1157, 0, 0, -22.1157, 3925.22, 6515.85)">
			<stop offset="0" style="stop-color: rgb(153, 154, 158);"/>
			<stop offset="0.0582" style="stop-color: rgb(153, 154, 158);"/>
			<stop offset="0.0615" style="stop-color: rgb(153, 155, 158);"/>
			<stop offset="0.1773" style="stop-color: rgb(179, 181, 183);"/>
			<stop offset="0.2755" style="stop-color: rgb(197, 198, 199);"/>
			<stop offset="0.3439" style="stop-color: rgb(203, 204, 206);"/>
			<stop offset="0.6138" style="stop-color: rgb(231, 231, 231);"/>
			<stop offset="0.6986" style="stop-color: rgb(210, 211, 212);"/>
			<stop offset="0.854" style="stop-color: rgb(180, 183, 184);"/>
			<stop offset="0.9382" style="stop-color: rgb(169, 173, 175);"/>
			<stop offset="1" style="stop-color: rgb(169, 173, 175);"/>
		</linearGradient>
		<rect x="7.83" y="10.56" clip-path="url(#SVGID_50_)" fill="url(#SVGID_51_)" width="115.2" height="159.481"/>
	</g>
	<g>
		<defs>
			<path id="SVGID_52_" d="M152.238,57.847l-0.873,0.463l-6.454-9.768l13.918-9.92c0,0,4.166-0.568,7.428-1.01     c-3.077-1.326-6.617-2.846-6.933-2.982c-0.495,0.037-8.674,0.673-8.674,0.673s-6.023-1.841-6.581-2.015     c-0.547,0.158-12.865,3.614-15.521,4.371c1.046,1.21,2.877,3.319,2.877,3.319s-4.377,9.857-4.561,10.257v118.806     c3.046-8.237,12.24-33.117,12.24-33.117s20.398,10.089,24.196,11.972c-1.347-4.292-11.656-36.946-11.656-36.946     s19.799-10.52,20.335-10.804c0.306-0.526,13.929-24.046,13.929-24.046s12.608-6.822,13.118-7.101     c0.253-0.426,8.511-14.392,11.446-19.347c-5.949,3.324-40.003,22.35-40.003,22.35l-5.949-2.972c0,0,61.964-33.07,62.506-33.364     c0.268-0.468,12.098-20.988,15.049-26.105C235.868,13.815,152.238,57.847,152.238,57.847"/>
		</defs>
		<clipPath id="SVGID_53_">
			<use xlink:href="#SVGID_52_" overflow="visible"/>
		</clipPath>
		
			<linearGradient id="SVGID_54_" gradientUnits="userSpaceOnUse" x1="-172.2627" y1="290.9102" x2="-166.8753" y2="290.9102" gradientTransform="matrix(20.8447, 0, 0, -20.8447, 3718.6, 6154.22)">
			<stop offset="0" style="stop-color: rgb(208, 209, 211);"/>
			<stop offset="0.0265" style="stop-color: rgb(208, 209, 211);"/>
			<stop offset="0.2381" style="stop-color: rgb(242, 242, 242);"/>
			<stop offset="0.2902" style="stop-color: rgb(230, 230, 230);"/>
			<stop offset="0.4362" style="stop-color: rgb(203, 204, 205);"/>
			<stop offset="0.5635" style="stop-color: rgb(188, 190, 191);"/>
			<stop offset="0.6573" style="stop-color: rgb(183, 185, 186);"/>
			<stop offset="0.7284" style="stop-color: rgb(207, 208, 208);"/>
			<stop offset="0.7956" style="stop-color: rgb(224, 225, 225);"/>
			<stop offset="0.8427" style="stop-color: rgb(231, 231, 231);"/>
			<stop offset="0.8464" style="stop-color: rgb(229, 229, 230);"/>
			<stop offset="0.9475" style="stop-color: rgb(193, 194, 196);"/>
			<stop offset="1" style="stop-color: rgb(179, 181, 184);"/>
		</linearGradient>
		<rect x="126.864" y="10.56" clip-path="url(#SVGID_53_)" fill="url(#SVGID_54_)" width="115.2" height="159.481"/>
	</g>
	<g>
		<defs>
			<polygon id="SVGID_55_" points="166.167,88.587 166.167,89.481 223.196,89.481 223.434,88.587"/>
		</defs>
		<clipPath id="SVGID_56_">
			<use xlink:href="#SVGID_55_" overflow="visible"/>
		</clipPath>
		
			<linearGradient id="SVGID_57_" gradientUnits="userSpaceOnUse" x1="-169.6079" y1="291.6104" x2="-164.2236" y2="291.6104" gradientTransform="matrix(18.9388, 0, 0, -18.9388, 3382.47, 5611.77)">
			<stop offset="0" style="stop-color: rgb(97, 13, 13);"/>
			<stop offset="0.0112" style="stop-color: rgb(97, 13, 13);"/>
			<stop offset="0.054" style="stop-color: rgb(101, 14, 14);"/>
			<stop offset="0.1051" style="stop-color: rgb(111, 17, 18);"/>
			<stop offset="0.1602" style="stop-color: rgb(129, 21, 23);"/>
			<stop offset="0.1685" style="stop-color: rgb(132, 22, 24);"/>
			<stop offset="0.395" style="stop-color: rgb(174, 29, 47);"/>
			<stop offset="0.5281" style="stop-color: rgb(196, 31, 60);"/>
			<stop offset="0.6001" style="stop-color: rgb(167, 28, 43);"/>
			<stop offset="0.6798" style="stop-color: rgb(132, 22, 24);"/>
			<stop offset="0.7159" style="stop-color: rgb(182, 33, 55);"/>
			<stop offset="0.736" style="stop-color: rgb(208, 37, 71);"/>
			<stop offset="0.787" style="stop-color: rgb(174, 31, 49);"/>
			<stop offset="0.8483" style="stop-color: rgb(132, 22, 24);"/>
			<stop offset="0.8792" style="stop-color: rgb(136, 23, 26);"/>
			<stop offset="0.9134" style="stop-color: rgb(147, 26, 33);"/>
			<stop offset="0.9493" style="stop-color: rgb(167, 30, 45);"/>
			<stop offset="0.986" style="stop-color: rgb(194, 35, 63);"/>
			<stop offset="1" style="stop-color: rgb(208, 37, 71);"/>
		</linearGradient>
		<rect x="166.167" y="88.587" clip-path="url(#SVGID_56_)" fill="url(#SVGID_57_)" width="57.267" height="0.894"/>
	</g>
	<g>
		<defs>
			<polygon id="SVGID_58_" points="28.207,88.587 28.449,89.481 84.605,89.481 84.605,88.587"/>
		</defs>
		<clipPath id="SVGID_59_">
			<use xlink:href="#SVGID_58_" overflow="visible"/>
		</clipPath>
		
			<linearGradient id="SVGID_60_" gradientUnits="userSpaceOnUse" x1="-171.8516" y1="297.3574" x2="-166.4658" y2="297.3574" gradientTransform="matrix(10.4722, 0, 0, -10.4722, 1827.86, 3203.01)">
			<stop offset="0" style="stop-color: rgb(132, 22, 24);"/>
			<stop offset="0.2753" style="stop-color: rgb(231, 61, 47);"/>
			<stop offset="0.5112" style="stop-color: rgb(155, 28, 31);"/>
			<stop offset="0.7026" style="stop-color: rgb(218, 56, 44);"/>
			<stop offset="0.7303" style="stop-color: rgb(231, 61, 47);"/>
			<stop offset="0.8655" style="stop-color: rgb(180, 41, 37);"/>
			<stop offset="1" style="stop-color: rgb(133, 22, 24);"/>
		</linearGradient>
		<rect x="28.207" y="88.587" clip-path="url(#SVGID_59_)" fill="url(#SVGID_60_)" width="56.398" height="0.894"/>
	</g>
	<g>
		<path fill="#A8AAAD" d="M193.725,76.189c-11.462-5.833-44.432-9.978-68.333-9.978c-23.913,0-56.882,4.145-68.344,9.978v32.509    c11.461-5.838,44.431-9.983,68.344-9.983c23.901,0,56.871,4.146,68.333,9.983V76.189z"/>
		<path fill="#DCDDDE" d="M193.725,74.559c-11.462-5.833-44.432-9.994-68.333-9.994c-23.913,0-56.882,4.161-68.344,9.994v32.499    c11.461-5.828,44.431-9.973,68.344-9.973c23.901,0,56.871,4.145,68.333,9.973V74.559z"/>
	</g>
	<g>
		<defs>
			<path id="SVGID_61_" d="M57.048,75.379v32.499c11.461-5.828,44.431-9.983,68.344-9.983c23.901,0,56.871,4.155,68.333,9.983     V75.379c-11.462-5.838-44.432-9.989-68.333-9.989C101.479,65.39,68.509,69.541,57.048,75.379"/>
		</defs>
		<clipPath id="SVGID_62_">
			<use xlink:href="#SVGID_61_" overflow="visible"/>
		</clipPath>
		
			<linearGradient id="SVGID_63_" gradientUnits="userSpaceOnUse" x1="-176.0054" y1="289.8848" x2="-170.6191" y2="289.8848" gradientTransform="matrix(25.3749, 0, 0, -25.3749, 4523.16, 7442.4)">
			<stop offset="0" style="stop-color: rgb(127, 129, 131);"/>
			<stop offset="0.0314" style="stop-color: rgb(128, 130, 132);"/>
			<stop offset="0.0512" style="stop-color: rgb(135, 136, 138);"/>
			<stop offset="0.0678" style="stop-color: rgb(146, 147, 149);"/>
			<stop offset="0.0826" style="stop-color: rgb(163, 163, 165);"/>
			<stop offset="0.0963" style="stop-color: rgb(187, 186, 187);"/>
			<stop offset="0.1089" style="stop-color: rgb(219, 218, 218);"/>
			<stop offset="0.118" style="stop-color: rgb(255, 255, 255);"/>
			<stop offset="0.2451" style="stop-color: rgb(211, 211, 212);"/>
			<stop offset="0.3539" style="stop-color: rgb(183, 185, 186);"/>
			<stop offset="0.3833" style="stop-color: rgb(201, 201, 202);"/>
			<stop offset="0.4433" style="stop-color: rgb(253, 253, 253);"/>
			<stop offset="0.4444" style="stop-color: rgb(255, 255, 255);"/>
			<stop offset="0.5528" style="stop-color: rgb(211, 211, 212);"/>
			<stop offset="0.6455" style="stop-color: rgb(183, 185, 186);"/>
			<stop offset="0.697" style="stop-color: rgb(201, 201, 202);"/>
			<stop offset="0.8022" style="stop-color: rgb(253, 253, 253);"/>
			<stop offset="0.8042" style="stop-color: rgb(255, 255, 255);"/>
			<stop offset="0.9039" style="stop-color: rgb(181, 181, 183);"/>
			<stop offset="0.9735" style="stop-color: rgb(143, 146, 148);"/>
			<stop offset="1" style="stop-color: rgb(143, 146, 148);"/>
		</linearGradient>
		<rect x="57.048" y="65.39" clip-path="url(#SVGID_62_)" fill="url(#SVGID_63_)" width="136.677" height="42.488"/>
	</g>
	<g>
		<path fill="#6E7072" d="M57.048,78.041c11.461-5.828,44.431-9.989,68.338-9.989c23.907,0,56.876,4.161,68.338,9.989v0.899    c-11.462-5.828-44.432-9.994-68.338-9.994c-23.907,0-56.877,4.166-68.338,9.994V78.041z"/>
		<path fill="#6E7072" d="M57.048,79.834c11.461-5.833,44.431-9.978,68.338-9.978c23.907,0,56.876,4.145,68.338,9.978v23.584    c-11.462-5.839-44.432-9.992-68.338-9.992c-23.907,0-56.877,4.153-68.338,9.992V79.834z"/>
		<path fill="#6E7072" d="M57.048,104.312c11.461-5.828,44.431-9.986,68.338-9.986c23.907,0,56.876,4.158,68.338,9.986v0.895    c-11.462-5.828-44.432-9.981-68.338-9.981c-23.907,0-56.877,4.153-68.338,9.981V104.312z"/>
	</g>
	<g>
		<defs>
			<path id="SVGID_64_" d="M57.048,78.041v0.899c11.461-5.828,44.431-9.994,68.344-9.994c23.901,0,56.871,4.166,68.333,9.994v-0.899     c-11.462-5.823-44.432-9.989-68.333-9.989C101.479,68.052,68.509,72.218,57.048,78.041"/>
		</defs>
		<clipPath id="SVGID_65_">
			<use xlink:href="#SVGID_64_" overflow="visible"/>
		</clipPath>
		
			<linearGradient id="SVGID_66_" gradientUnits="userSpaceOnUse" x1="-176.0054" y1="290.3047" x2="-170.6191" y2="290.3047" gradientTransform="matrix(25.3749, 0, 0, -25.3749, 4523.16, 7439.96)">
			<stop offset="0" style="stop-color: rgb(208, 37, 71);"/>
			<stop offset="0.0332" style="stop-color: rgb(174, 31, 49);"/>
			<stop offset="0.073" style="stop-color: rgb(132, 22, 24);"/>
			<stop offset="0.2032" style="stop-color: rgb(182, 33, 55);"/>
			<stop offset="0.2753" style="stop-color: rgb(208, 37, 71);"/>
			<stop offset="0.3688" style="stop-color: rgb(156, 28, 32);"/>
			<stop offset="0.3708" style="stop-color: rgb(155, 28, 31);"/>
			<stop offset="0.3856" style="stop-color: rgb(161, 29, 35);"/>
			<stop offset="0.4404" style="stop-color: rgb(180, 30, 48);"/>
			<stop offset="0.4895" style="stop-color: rgb(192, 31, 57);"/>
			<stop offset="0.5281" style="stop-color: rgb(196, 31, 60);"/>
			<stop offset="0.6001" style="stop-color: rgb(167, 28, 43);"/>
			<stop offset="0.6798" style="stop-color: rgb(132, 22, 24);"/>
			<stop offset="0.7159" style="stop-color: rgb(182, 33, 55);"/>
			<stop offset="0.736" style="stop-color: rgb(208, 37, 71);"/>
			<stop offset="0.787" style="stop-color: rgb(174, 31, 49);"/>
			<stop offset="0.8483" style="stop-color: rgb(132, 22, 24);"/>
			<stop offset="0.8792" style="stop-color: rgb(136, 23, 26);"/>
			<stop offset="0.9134" style="stop-color: rgb(147, 26, 33);"/>
			<stop offset="0.9493" style="stop-color: rgb(167, 30, 45);"/>
			<stop offset="0.986" style="stop-color: rgb(194, 35, 63);"/>
			<stop offset="1" style="stop-color: rgb(208, 37, 71);"/>
		</linearGradient>
		<rect x="57.048" y="68.052" clip-path="url(#SVGID_65_)" fill="url(#SVGID_66_)" width="136.677" height="10.883"/>
	</g>
	<g>
		<defs>
			<path id="SVGID_67_" d="M57.048,79.834v23.584c11.461-5.839,44.431-9.992,68.344-9.992c23.901,0,56.871,4.153,68.333,9.992     V79.834c-11.462-5.828-44.432-9.983-68.333-9.983C101.479,69.851,68.509,74.006,57.048,79.834"/>
		</defs>
		<clipPath id="SVGID_68_">
			<use xlink:href="#SVGID_67_" overflow="visible"/>
		</clipPath>
		
			<linearGradient id="SVGID_69_" gradientUnits="userSpaceOnUse" x1="-176.0054" y1="289.8838" x2="-170.6191" y2="289.8838" gradientTransform="matrix(25.3749, 0, 0, -25.3749, 4523.16, 7442.4)">
			<stop offset="0" style="stop-color: rgb(208, 37, 71);"/>
			<stop offset="0.0332" style="stop-color: rgb(174, 31, 49);"/>
			<stop offset="0.073" style="stop-color: rgb(132, 22, 24);"/>
			<stop offset="0.2032" style="stop-color: rgb(182, 33, 55);"/>
			<stop offset="0.2753" style="stop-color: rgb(208, 37, 71);"/>
			<stop offset="0.3688" style="stop-color: rgb(156, 28, 32);"/>
			<stop offset="0.3708" style="stop-color: rgb(155, 28, 31);"/>
			<stop offset="0.3856" style="stop-color: rgb(161, 29, 35);"/>
			<stop offset="0.4404" style="stop-color: rgb(180, 30, 48);"/>
			<stop offset="0.4895" style="stop-color: rgb(192, 31, 57);"/>
			<stop offset="0.5281" style="stop-color: rgb(196, 31, 60);"/>
			<stop offset="0.6001" style="stop-color: rgb(167, 28, 43);"/>
			<stop offset="0.6798" style="stop-color: rgb(132, 22, 24);"/>
			<stop offset="0.7159" style="stop-color: rgb(182, 33, 55);"/>
			<stop offset="0.736" style="stop-color: rgb(208, 37, 71);"/>
			<stop offset="0.787" style="stop-color: rgb(174, 31, 49);"/>
			<stop offset="0.8483" style="stop-color: rgb(132, 22, 24);"/>
			<stop offset="0.8792" style="stop-color: rgb(136, 23, 26);"/>
			<stop offset="0.9134" style="stop-color: rgb(147, 26, 33);"/>
			<stop offset="0.9493" style="stop-color: rgb(167, 30, 45);"/>
			<stop offset="0.986" style="stop-color: rgb(194, 35, 63);"/>
			<stop offset="1" style="stop-color: rgb(208, 37, 71);"/>
		</linearGradient>
		<rect x="57.048" y="69.856" clip-path="url(#SVGID_68_)" fill="url(#SVGID_69_)" width="136.677" height="33.562"/>
	</g>
	<g>
		<defs>
			<path id="SVGID_70_" d="M57.048,104.322v0.895c11.461-5.839,44.431-9.992,68.344-9.992c23.901,0,56.871,4.153,68.333,9.992     v-0.895c-11.462-5.839-44.432-9.991-68.333-9.991C101.479,94.331,68.509,98.483,57.048,104.322"/>
		</defs>
		<clipPath id="SVGID_71_">
			<use xlink:href="#SVGID_70_" overflow="visible"/>
		</clipPath>
		
			<linearGradient id="SVGID_72_" gradientUnits="userSpaceOnUse" x1="-176.0054" y1="289.4619" x2="-170.6191" y2="289.4619" gradientTransform="matrix(25.3749, 0, 0, -25.3749, 4523.16, 7444.83)">
			<stop offset="0" style="stop-color: rgb(208, 37, 71);"/>
			<stop offset="0.0332" style="stop-color: rgb(174, 31, 49);"/>
			<stop offset="0.073" style="stop-color: rgb(132, 22, 24);"/>
			<stop offset="0.2032" style="stop-color: rgb(182, 33, 55);"/>
			<stop offset="0.2753" style="stop-color: rgb(208, 37, 71);"/>
			<stop offset="0.3688" style="stop-color: rgb(156, 28, 32);"/>
			<stop offset="0.3708" style="stop-color: rgb(155, 28, 31);"/>
			<stop offset="0.3856" style="stop-color: rgb(161, 29, 35);"/>
			<stop offset="0.4404" style="stop-color: rgb(180, 30, 48);"/>
			<stop offset="0.4895" style="stop-color: rgb(192, 31, 57);"/>
			<stop offset="0.5281" style="stop-color: rgb(196, 31, 60);"/>
			<stop offset="0.6001" style="stop-color: rgb(167, 28, 43);"/>
			<stop offset="0.6798" style="stop-color: rgb(132, 22, 24);"/>
			<stop offset="0.7159" style="stop-color: rgb(182, 33, 55);"/>
			<stop offset="0.736" style="stop-color: rgb(208, 37, 71);"/>
			<stop offset="0.787" style="stop-color: rgb(174, 31, 49);"/>
			<stop offset="0.8483" style="stop-color: rgb(132, 22, 24);"/>
			<stop offset="0.8792" style="stop-color: rgb(136, 23, 26);"/>
			<stop offset="0.9134" style="stop-color: rgb(147, 26, 33);"/>
			<stop offset="0.9493" style="stop-color: rgb(167, 30, 45);"/>
			<stop offset="0.986" style="stop-color: rgb(194, 35, 63);"/>
			<stop offset="1" style="stop-color: rgb(208, 37, 71);"/>
		</linearGradient>
		<rect x="57.048" y="94.331" clip-path="url(#SVGID_71_)" fill="url(#SVGID_72_)" width="136.677" height="10.886"/>
	</g>
	<g>
		<path fill-rule="evenodd" clip-rule="evenodd" fill="#FFFFFF" d="M119.847,81.039l0.537-0.347c1.504-0.973,1.92-2.43,1.92-4.097    v-0.126c0-1.931-1.036-4.297-4.429-4.171l-6.543,0.284c0,0,0.363,0.836,0.363,1.825v16.69l3.403-0.132v-6.885l1.983-1.278    l2.104,5.718c0.626,1.673,1.257,2.362,2.861,2.325c1.41-0.037,1.899-0.042,1.899-0.042s-0.705-0.92-1.273-2.435    C122.393,87.629,120.194,81.928,119.847,81.039 M118.706,77.057c0,1.32-0.463,2.156-1.205,2.872l-2.404,2.13v-7.585l1.683-0.042    c1.189-0.016,1.925,0.836,1.925,2.146V77.057z M181.8,94.042c0.011-0.3-0.205-0.506-0.604-0.506h-0.862v1.946h0.263v-0.915h0.432    l0.531,0.915h0.3l-0.579-0.926C181.495,94.547,181.8,94.415,181.8,94.042 M180.596,94.373v-0.626h0.516    c0.216,0,0.426,0.031,0.426,0.3c0,0.179-0.079,0.326-0.405,0.326H180.596z M97.035,73.717l-1.768,0.205    c-1.052,0.137-1.799,0.315-2.32,1.931c-0.426,1.346-2.309,7.506-2.309,7.506s-1.52-4.818-2.141-6.754    c-0.526-1.636-1.362-1.604-2.399-1.467c-0.289,0.042-1.919,0.3-1.919,0.3l-0.631,18.447l2.709-0.39c0,0-0.237-0.768-0.21-1.751    c0.031-1.147,0.279-11.32,0.279-11.32l3.787,11.887l3.956-12.918l0.273,13.098c0,0,1.22-0.143,1.789-0.195l1.762-0.179    c0,0-0.269-0.747-0.321-1.709C97.524,89.434,97.035,73.717,97.035,73.717 M76.731,84.252c-1.826-1.273-2.583-2.125-2.562-3.193    c0.016-0.784,0.432-1.625,1.815-1.999c0.426-0.116,0.968-0.231,1.446-0.305c0.895-0.11,1.894,0.279,1.894,0.279s0-2.788,0-2.809    c-0.789,0.1-2.583,0.4-3.566,0.616c-3.877,0.863-4.955,2.877-4.955,4.897c0,2.088,0.731,3.214,2.961,4.929    c1.709,1.315,3.267,2.025,3.288,3.656c0.01,1.562-0.979,2.441-2.425,2.809c-0.6,0.163-1.173,0.273-1.799,0.347    c-0.873,0.11-2.099-0.216-2.099-0.216l-0.01,2.844c1.336-0.189,3.177-0.539,4.55-0.865c3.914-0.921,5.187-2.946,5.187-5.702    C80.455,87.025,78.798,85.699,76.731,84.252 M106.208,72.886l-3.897,0.305c0,0,0.347,0.794,0.347,1.856v16.648l3.84-0.284    c0,0-0.29-0.773-0.29-1.794V72.886z M135.433,74.138v9.536c0,0-3.666-8.832-4.061-9.72c-0.474-1.131-0.915-1.736-2.204-1.773    c-1.063-0.026-2.293-0.005-2.293-0.005s0.342,0.978,0.342,1.856v16.732l2.872,0.026c0,0-0.315-0.884-0.315-1.857v-9.931    l4.907,11.893L138,91.017V72.444l-2.861-0.11C135.139,72.333,135.433,73.238,135.433,74.138 M166.01,77.688    c0.946,0.147,1.751,0.784,1.751,0.784v-2.94c-2.924-0.479-7.396-1.11-9.384-1.336c0,0,0.332,0.968,0.332,1.92v16.548l3.834,0.463    c-0.121-0.31-0.368-0.92-0.368-1.777v-6.754c0,0,1.357,0.21,2.641,0.395c1.642,0.236,2.083-1.941,2.083-1.941    s-3.156-0.489-4.724-0.689v-5.218C163.438,77.304,164.763,77.467,166.01,77.688 M174.642,84.363v-5.318    c1.146,0.226,2.614,0.5,3.86,0.763c0.915,0.194,1.557,0.773,1.557,0.773l-0.01-2.819c-2.63-0.547-7.001-1.368-9.174-1.73    c0,0,0.342,0.81,0.342,1.904v16.438l3.782,0.642c-0.132-0.342-0.357-0.968-0.357-1.768v-6.633c0,0,1.367,0.273,2.593,0.5    c1.599,0.31,2.057-1.841,2.057-1.841S176.24,84.673,174.642,84.363 M148.415,72.97c-3.377-0.2-5.413,1.236-5.413,4.271v9.458    c0,3.108,1.521,4.897,5.233,5.118c4.124,0.258,5.376-1.946,5.376-4.213v-9.658C153.611,74.574,151.854,73.17,148.415,72.97     M150.135,87.861c0,1.299-0.752,1.815-1.867,1.747c-1.115-0.074-1.783-0.773-1.783-2.041V76.705c0-1.094,0.773-1.625,1.856-1.552    c0.941,0.063,1.794,0.537,1.794,1.862V87.861z M181.027,92.769c-0.969,0-1.763,0.768-1.763,1.757c0,0.957,0.794,1.749,1.763,1.749    c0.946,0,1.725-0.792,1.725-1.749C182.752,93.536,181.974,92.769,181.027,92.769 M181.027,95.99c-0.826,0-1.479-0.66-1.479-1.465    c0-0.836,0.652-1.483,1.479-1.483c0.794,0,1.44,0.647,1.44,1.483C182.468,95.33,181.821,95.99,181.027,95.99"/>
		<path fill="#A8AAAD" d="M242.538,5.037h-0.505V4.857h1.188v0.179h-0.505v1.457h-0.179V5.037z M244.82,5.037h-0.01l-0.553,1.457    h-0.11l-0.553-1.457h-0.005v1.457h-0.185V4.857h0.311l0.489,1.331l0.484-1.331H245v1.636h-0.18V5.037z"/>
	</g>
</g>
</svg>